<svg 
    width="120" 
    height="120" 
    version="1.1" 
    viewBox="0 0 120 120" 
    xmlns="http://www.w3.org/2000/svg">
 <path d="m55.554 52.096c-0.16983 0.28385-0.33965 0.56769-0.50948 0.85154" fill="#fff"/>
 <g fill="#d45500">
  <path d="m16.175 64.405c-0.19621-1.5529-0.14349-3.1252 0.14637-4.6642 0.25948-1.3777 0.54906-2.1965 0.95689-3.5362 0.78264-2.216 1.9683-4.2799 3.5521-6.0234 1.0596-1.1664 1.4244-1.3706 2.6733-2.3619 3.8466-2.5941 8.1102-4.4814 12.267-6.5131 2.6318-1.2641 5.2349-2.5964 7.7742-4.0386 0.86677-0.49229 1.7173-1.0127 2.576-1.5189 0.79505-0.46874 1.5989-0.92285 2.3852-1.406 0.73839-0.45371 1.4588-0.93609 2.1882-1.4041 2.4996-1.8014 4.8145-3.8636 6.5323-6.4422 0.88589-1.3299 1.026-1.7513 1.686-3.1495 0.50242-1.4046 1.4996-3.5788 0.51185-5.0124-0.12786-0.18557-0.31958-0.31782-0.47937-0.47673-1.9064-1.0034-3.7474-2.1425-5.7193-3.0103-0.23953-0.10542-0.52013 0.07589-0.76975 0.1545-1.5453 0.4866-2.1781 1.4869-3.0483 2.7595-0.87915 1.8188-1.551 3.7312-2.2014 5.6409-0.26081 0.76585-0.52973 1.5296-0.75717 2.306-0.35323 1.2058-1.1031 4.3049-1.3944 5.4858-0.66974 3.0242-1.3718 6.0576-1.7613 9.1349-0.16104 1.2721-0.23744 2.5535-0.37303 3.8286-0.26026 2.4474-0.64544 5.5225-0.94398 7.9668-0.65031 4.7755-1.3717 9.5519-2.3731 14.269-0.49491 2.331-0.9743 4.0991-1.566 6.4046-1.0394 3.7451-2.3323 7.4262-3.9439 10.965-0.8457 1.8572-1.1757 2.3834-2.1366 4.1311-0.95481 1.6016-1.983 3.1622-3.2042 4.5754-0.55433 0.64155-1.2705 1.4406-2.0366 1.863-0.32079 0.17687-0.69269 0.23859-1.039 0.35789-0.32832 0.0083-0.66692 0.10695-0.98497 0.02503-0.30203-0.0778-1.0911-0.59752-0.80025-0.48487 1.2546 0.48596 2.3591 1.5236 3.7018 1.6088 0.48096 0.0305-0.32232-0.91802-0.37027-1.3976-0.14582-1.4582 0.18394-2.1951 0.54321-3.6129 0.30036-0.67535 0.54599-1.3778 0.90106-2.026 2.6073-4.7601 7.329-8.4545 11.365-11.936 1.2219-0.97553 2.4365-1.9602 3.6656-2.9266 1.2473-0.98073 2.5179-1.9316 3.7634-2.9146 2.3572-1.8604 5.152-4.1363 7.4354-6.0933 3.3552-2.8757 3.454-3.04 6.6191-6.0298 3.8627-3.7689 7.229-8.0497 10.003-12.68 1.6295-2.7198 1.9026-3.4845 3.2268-6.3108 1.1211-2.8658 2.0982-5.785 2.7844-8.7869 0.17866-0.7816 0.36868-1.5636 0.46999-2.3589 0.22543-1.7696 0.09838-2.4707-0.02029-4.1927-0.27184-1.4529-0.20786-1.6984-0.84541-2.9857-0.25813-0.52119-0.80706-1.3882-1.3486-1.7135-5.5119-3.3116-3.5529-3.4087-6.5557-2.9594-0.29316 0.1684-0.61975 0.28877-0.87947 0.50521-0.69379 0.57816-1.1363 1.3743-1.5061 2.1791-0.80622 1.755-1.2118 3.6527-1.6543 5.52-1.0867 5.7704-2.1309 11.549-3.1477 17.332-0.21382 1.1163-0.42918 2.2323-0.64146 3.3489-0.45736 2.4057-0.86805 4.6569-1.3553 7.0572-0.68626 3.3808-1.4527 6.7443-2.2171 10.108-0.91174 4.233-1.9225 8.4482-3.139 12.605-0.74497 2.5455-0.95793 3.1001-1.7999 5.6116-0.82508 2.3497-1.7864 4.653-2.9731 6.8445-0.59267 1.0945-1.1616 2.0387-1.9227 3.0159-0.27326 0.35083-0.58612 0.66894-0.87918 1.0034-0.57388 0.52038-1.3015 1.1434-2.1306 0.7247-0.20143-0.10172-0.72196-0.53395-0.51979-0.43371 4.3211 2.1425 5.1615 3.6915 3.8332 1.6204-0.76348-1.7176-0.6198-3.5645-0.02555-5.3166 0.21599-0.63686 0.49339-1.2512 0.74008-1.8768 0.36513-0.70785 0.69861-1.4329 1.0954-2.1235 1.5643-2.7226 3.4805-5.2624 5.4764-7.678 0.82683-1.0007 1.6624-1.9954 2.5391-2.9527 0.9468-1.0339 1.9526-2.0121 2.9289-3.0182 2.7934-2.5983 3.9867-3.8275 7.0818-6.1915 4.1283-3.1531 8.6123-5.8909 13.297-8.1357 1.4675-0.70324 2.9853-1.2963 4.4779-1.9445 3.8054-1.4871 7.7651-2.5241 11.825-2.9948 1.0006-0.11601 2.008-0.17374 3.0147-0.20984 4.6461-0.1666 0.53799 0.19588 3.5791-0.10552l-0.83758-0.64084c-1.0341-0.40816-2.0288-0.93546-3.1023-1.2245-1.9031-0.51234-4.2147-0.48562-6.1425-0.26706-4.0072 0.4543-7.8399 1.799-11.553 3.3061-1.4674 0.67528-2.9582 1.3018-4.4022 2.0259-3.1177 1.5633-6.0717 3.312-8.9996 5.2048-2.4757 1.6005-6.1097 4.1247-8.4149 5.9999-1.1685 0.95051-2.2506 2.0025-3.3759 3.0037-1.0012 0.99925-2.0225 1.9787-3.0035 2.9978-1.941 2.0163-3.2368 3.5017-4.9856 5.6549-0.67872 0.83566-1.3558 1.6738-1.9908 2.5432-1.0971 1.5022-1.8227 2.7609-2.7813 4.3335-0.78386 1.4656-1.5866 2.8274-1.8046 4.5115-0.12408 0.95837 0.09468 1.9279 0.35565 2.841 1.0807 2.6485 0.18757 0.87443 5.5317 4.1506 0.40275 0.2469 0.94022 0.27223 1.38 0.13054 0.70854-0.22826 1.0419-0.65607 1.5837-1.1495 0.26214-0.37287 0.543-0.73326 0.78642-1.1186 2.0038-3.1721 3.1499-6.7758 4.4008-10.284 0.30567-0.93873 0.6308-1.8713 0.91701-2.8162 1.5486-5.1122 2.6219-10.353 3.8531-15.546 1.4348-6.8408 2.7842-13.7 4.169-20.551 0.44778-2.1467 0.90858-4.2907 1.3489-6.4389 0.7247-3.5357 1.4003-7.0835 2.3296-10.574 0.50033-1.779 0.95845-3.5952 1.8777-5.2185 0.36862-0.65092 0.87852-1.3798 1.5371-1.7901 0.24094-0.15013 0.53242-0.19721 0.79864-0.29582 2.2995 0.13051 1.1999 0.19396-3.1535-2.3952-0.30429-0.18097 0.6113 0.3682 0.86822 0.61179 1.0919 1.0352 1.5428 2.444 1.8637 3.8693 0.22052 1.8599 0.34388 2.2038 0.21135 4.1471-0.05522 0.8097-0.16702 1.6155-0.297 2.4166-0.49239 3.0347-1.3163 6.0079-2.4385 8.8697-1.2464 2.8494-1.4914 3.5976-3.039 6.3514-2.6307 4.6812-5.9484 8.914-9.7113 12.738-2.816 2.805-3.3942 3.4595-6.4039 6.132-4.7455 4.2137-9.7949 8.07-14.799 11.966-3.0129 2.2944-6.1046 4.5456-8.7152 7.313-0.64683 0.68567-1.2351 1.4252-1.8188 2.1654-0.56359 0.71463-1.136 1.4269-1.6214 2.1968-0.40604 0.64398-0.69623 1.3541-1.0443 2.0312-0.51877 1.5644-0.82924 2.0739-0.85575 3.7007-0.0082 0.5029-0.19305 1.1436 0.16162 1.5002 1.4368 1.4448 3.2282 2.4932 4.9277 3.6172 0.2732 0.1807 0.61838 0.25205 0.94557 0.26743 0.34096 0.016 0.67255-0.11706 1.0088-0.17559 0.37391-0.15941 0.77319-0.26909 1.1217-0.47824 0.78578-0.47152 1.5479-1.2713 2.1194-1.965 1.201-1.4578 2.167-3.1021 3.0711-4.7528 1.118-2.2054 2.1789-4.4308 3.0605-6.7444 1.0764-2.825 1.914-5.7372 2.7141-8.6495 0.26823-1.0666 0.5594-2.1277 0.80468-3.1998 1.3343-5.832 2.1435-11.761 2.8245-17.7 0.26208-2.075 0.71758-5.8339 1.0554-7.9001 0.19965-1.221 0.45917-2.4315 0.68549-3.6479 0.56214-3.0212 1.0994-6.0498 1.8838-9.0242 0.87553-3.1553 0.59268-2.3139 1.616-5.3255 0.88536-2.6055 1.8233-5.2258 3.3753-7.5224 0.71198-0.90809 1.1638-1.5465 2.2595-2.0128 0.23108-0.09833 0.4736-0.17928 0.72229-0.21431 0.22495-0.03168 0.86574 0.14924 0.68131 0.01661-1.4025-1.0085-2.9468-1.8035-4.4203-2.7053 0.196 0.0936 0.41552 0.14878 0.588 0.2808 1.4201 1.087 0.69708 3.4436 0.33868 4.8299-0.53055 1.3452-0.68646 1.8879-1.4457 3.1683-1.5401 2.5971-3.7541 4.6811-6.1685 6.4579-1.8365 1.2823-2.4194 1.7287-4.3585 2.9172-3.3203 2.0351-6.785 3.8191-10.256 5.5782-1.5706 0.76368-3.1359 1.5382-4.7066 2.3017-2.6328 1.2798-5.3279 2.4932-7.7 4.233-0.49821 0.3918-1.0196 0.75578-1.4946 1.1754-2.274 2.0089-3.8514 4.61-4.834 7.4621-0.17608 0.60154-0.37782 1.1962-0.52824 1.8046-0.29446 1.1912-0.46308 2.2923-0.58613 3.5078-0.08495 0.83918-0.13867 1.6284-0.06803 2.4663 0.02016 0.23915 0.07992 0.47329 0.11989 0.70994l3.809 1.8162z"/>
  <path d="m101.78 50.821c0.81611 0.19725 1.6045 0.48697 2.3969 0.76184 0.50585 0.19384 1.0044 0.40577 1.4748 0.67615 0.17416 0.10009 0.6887 0.41331 0.51196 0.31786-2.1968-1.1865-2.9266-1.8025-1.8672-0.95566 0.75348 0.6748 1.2742 1.5255 1.6248 2.4647 0.36886 1.0265 0.46708 2.1084 0.63188 3.1786 0.10443 1.0121 0.32442 2.0077 0.46171 3.0149 0.0804 0.58993 0.13514 1.1831 0.20453 1.7744 0.20623 1.9693 0.29419 3.9668-2.5e-4 5.9331-0.0657 0.43901-0.16924 0.87153-0.25387 1.3073-0.53809 3.3625-2.1731 6.3613-3.8184 9.2909-1.4882 2.3368-3.2549 4.4872-5.1884 6.4687-0.96519 0.98917-2.0121 1.9421-3.0231 2.8836-1.5103 1.4905-3.1834 2.7983-4.8387 4.1201-0.61558 0.49158-1.2135 1.0062-1.8481 1.473-1.737 1.2776-2.4427 1.6309-4.3052 2.732-1.7148 0.95322-3.2179 1.8295-5.0121 2.65-1.9494 0.89144-3.9049 1.5965-5.9412 2.2605-1.041 0.33949-2.0855 0.67057-3.1421 0.95813-1.0804 0.29407-2.1773 0.52399-3.266 0.78598-4.4132 0.93548-8.8947 1.6228-13.4 1.907-3.0425 0.19195-4.0522 0.12643-7.1427 0.10056-5.6839-0.29593-11.329-1.168-16.842-2.5803-1.4618-0.37448-2.9199-0.76897-4.3572-1.2286-1.461-0.46718-2.8884-1.0334-4.3326-1.5501-5.4487-2.4792-2.833-1.1844-7.8592-3.8599l0.17673 0.1421c5.0274 2.674 2.4111 1.38 7.8611 3.8574 1.5003 0.55931 2.9827 1.1696 4.501 1.6779 2.8677 0.96013 6.1291 1.7904 9.0769 2.453 4.2787 0.96175 8.6032 1.6672 12.982 1.9709 1.324 0.0743 2.6461 0.20034 3.9719 0.22286 1.1736 0.0199 2.3478-0.0339 3.5199-0.0956 4.5336-0.23874 9.027-0.96056 13.464-1.8987 2.1738-0.52467 4.3883-1.0213 6.5252-1.6885 1.6673-0.5206 4.4145-1.5789 6.0337-2.2219 0.97696-0.38796 1.9613-0.75996 2.919-1.1934 0.83844-0.37951 1.6434-0.82905 2.4651-1.2436 2.0953-1.2388 2.3737-1.3868 4.4377-2.6737 0.70356-0.43868 1.4225-0.85499 2.1011-1.3313 1.7498-1.2281 3.2662-2.7558 4.9186-4.1034 2.995-2.9171 5.9175-5.9472 8.3266-9.377 0.36312-0.52924 0.75102-1.0423 1.0894-1.5877 1.4494-2.3366 2.4343-4.9387 3.3022-7.5341 0.1874-1.0647 0.29952-1.5847 0.40754-2.6558 0.15462-1.533 0.15594-3.0712 0.0437-4.6068-0.13204-1.5809-0.35217-3.1545-0.51993-4.7322-0.13921-1.2042-0.4005-2.4-0.98214-3.476-0.54789-0.99767-1.1312-2.0103-1.9787-2.7856-1.5648-1.2881-3.4319-2.2554-5.3307-2.9646-0.60401-0.19105-1.2423-0.37521-1.882-0.29796l1.7029 1.2586z"/>
  <path d="m23.823 93.732c-0.0615 0.08376-0.04869 0.17166-0.07677 0.25589-0.01144 0.03433-0.05669 0.04666-0.07677 0.07677-0.02029 0.03044-0.01612 0.24924 0 0.28148 0.0085 0.01706 0.04265 0.0085 0.05118 0.02559 0.04987 0.09974 0.03294 0.07069 0.12794 0.10236 0.02289 0.0076 0.0296 0.04039 0.05118 0.05118 0.0076 0.0038 0.01956-6e-3 0.02559 0 6e-3 6e-3 -6e-3 0.01956 0 0.02559 0.02697 0.02697 0.07062 0.03002 0.10236 0.05118 0.08203 0.05469 0.17107 0.11112 0.25589 0.15353 0.02877 0.01439 0.04645 0.06666 0.07677 0.07677 0.01618 0.0054 0.03534-0.0063 0.05118 0 0.12601 0.0504 0.24151 0.13801 0.35824 0.20471 0.04956 0.02832 0.3392 0.14699 0.35824 0.12794 0.42982-0.42982 0.23054-1.1666-0.17912-1.5353-0.12994-0.11694-0.23648-0.20148-0.40942-0.2303-0.16013-0.02669-0.17564 0.04978-0.30707 0.10236-0.05009 0.02004-0.10032 0.04231-0.15353 0.05118-0.03365 0.0056-0.07184-0.01526-0.10236 0-0.05415 0.02708 0.0027 0.07971-0.02559 0.10236-0.03884 0.03107-0.0853 0.05118-0.12794 0.07677z"/>
  <path d="m44.447 91.914c-0.04825 0.03619-0.10708 0.06147-0.14475 0.10856-0.03048 0.0381 0 0.24107 0 0.28951 0 0.15374 0.02817 0.35387 0.14475 0.47045 0.01907 0.01907 0.0533 0.01711 0.07238 0.03619 0.05484 0.05484 0.07864 0.22339 0.14475 0.28951 0.0085 0.0085 0.0254-0.0054 0.03619 0 0.05543 0.02771 0.0283 0.06449 0.07238 0.10856 0.11235 0.11235 0.32247 0.14475 0.47045 0.14475 0.11196 0 0.25924 0.0254 0.36188-0.03619 0.07019-0.04211 0.09544-0.12177 0.14475-0.18094 0.07708-0.09249 0.2139-0.20745 0.25332-0.32569 0.09196-0.27588-0.13932-0.6737-0.39807-0.75995-0.04577-0.01526-0.09744 0.0095-0.14475 0-0.33439-0.06688-0.6688-0.14475-1.0133-0.14475z"/>
  <path d="m53.123 15.507c0.07229 0.09539 0.27007-0.05878 0.35824 0 0.04015 0.02676 0.06046 0.07842 0.10236 0.10236 0.03797 0.0217 0.27891 0.10064 0.35824 0.15353 0.14382 0.09588 0.26976 0.2535 0.40942 0.35824 0.13709 0.03092 0.20449 0.17896 0.30707 0.25589 0.03052 0.02289 0.0853 0.01706 0.10236 0.05118 0.02289 0.04577-0.01241 0.10388 0 0.15353 0.03818 0.15272 0.3103 0.40297 0.20471 0.61413-0.0076 0.01526-0.03499-0.0054-0.05118 0-0.29532 0.09844-0.3502 0.04699-0.66531-0.15353-0.2659-0.16921-0.50196-0.39689-0.76767-0.56296-0.04575-0.02859-0.11038-0.01881-0.15353-0.05118-0.06277-0.04708-0.22494-0.31658-0.25589-0.40942-0.04427-0.13281 0.03834-0.11488 0.05118-0.20471 0.01447-0.10133 0-0.20471 0-0.30707z"/>
 </g>
 <g fill="#f9f9f9">
  <path d="m16.708 63.925c-0.01743-0.38416 0.03623-0.76363 0.0767-1.1444 0.03838-0.40246 0.12057-0.79883 0.20129-1.1944 0.07097-0.31642 0.14577-0.63213 0.21288-0.94945 0.0898-0.41423 0.18184-0.82808 0.27296-1.2421 0.14342-0.53934 0.28064-1.0801 0.44256-1.6143 0.15671-0.51732 0.28645-1.0455 0.49077-1.5473 0.12449-0.30574 0.27433-0.58583 0.42353-0.87954 0.3621-0.68772 0.82835-1.3102 1.2296-1.9738 0.33712-0.5956 0.71808-1.1611 1.1201-1.7141 0.61445-0.85519 1.3775-1.5838 2.1328-2.3114 0.99698-0.94496 2.0674-1.7993 3.2165-2.5505 0.22662-0.13651 0.44979-0.27891 0.67985-0.40953 0.47353-0.26884 1.1946-0.63228 1.6691-0.87842 1.2249-0.6355 2.4466-1.2763 3.6752-1.9047 1.9049-0.95367 0.9423-0.50752 2.8871-1.3397l-0.0629-0.04192c-1.9759 0.8455-0.9619 0.43214-3.0437 1.236-2.1952 0.8835-4.3969 1.7693-6.4761 2.9071-1.1653 0.74799-2.2659 1.587-3.29 2.5206-0.80484 0.70056-1.6003 1.4192-2.2877 2.2383-0.42204 0.5426-0.7994 1.117-1.1414 1.7133-0.41015 0.66019-0.81337 1.326-1.1922 2.0044-0.39972 0.76884-0.78731 1.5486-1.0322 2.383-0.16324 0.53201-0.35656 1.0541-0.49369 1.594-0.10965 0.40728-0.18978 0.82178-0.29737 1.2295-0.08489 0.31525-0.16775 0.63301-0.21449 0.95638-0.06483 0.40686-0.12295 0.81473-0.16694 1.2244-0.03079 0.39482-0.01464 0.79003-0.0193 1.1857l0.98709 0.50295z"/>
  <path d="m54.315 20.177c-0.45199 0.54994-0.92677 1.078-1.3883 1.6205-0.55786 0.79066-1.2015 1.5502-1.452 2.506-0.08303 0.31681-0.18545 1.2045-0.22881 1.5472l0.06598 0.03689c1.1178-1.4267-0.326 0.39421 0.94639-1.1335 0.61949-0.74378 1.0911-1.5934 1.7354-2.3187 0.4258-0.56255 0.84911-1.125 1.2037-1.7362l-0.88235-0.52227z"/>
  <path d="m27.861 93.395c-0.0159-0.43938 0.03548-0.86792 0.1228-1.2978 0.10867-0.48648 0.27427-0.95637 0.44845-1.4223 0.12694-0.38036 0.29886-0.74359 0.42994-1.1224 0.11947-0.34127 0.28818-0.66118 0.43979-0.9886 0.15399-0.36308 0.32796-0.71713 0.5026-1.0706 0.17767-0.30603 0.26947-0.65294 0.4273-0.96904 0.17335-0.36046 0.42292-0.6767 0.65251-1.0026 0.32252-0.42451 0.70074-0.80135 1.0769-1.1775 0.4244-0.4234 0.89951-0.7862 1.3919-1.1255 0.36953-0.16684 0.49239-0.55876 0.74798-0.8332 0.09887-0.10616 0.22572-0.18231 0.33858-0.27346l-0.06389-0.04039c-0.12164 0.08556-0.2331 0.18783-0.36491 0.25668-0.38533 0.20128-0.84886 0.25818-1.1879 0.55275-0.48582 0.34755-0.96192 0.71088-1.3655 1.1546-0.37694 0.37932-0.76797 0.75227-1.0872 1.1825-0.23899 0.32815-0.40071 0.68986-0.59752 1.0434-0.17205 0.30799-0.40488 0.5741-0.59033 0.87263-0.21931 0.32892-0.41438 0.67094-0.61293 1.0127-0.17158 0.31873-0.3304 0.64357-0.48164 0.97248-0.17305 0.36384-0.29015 0.74956-0.43263 1.1257-0.16022 0.4759-0.33475 0.9481-0.44302 1.4395-0.08535 0.42421-0.15309 0.85384-0.17041 1.2868l0.81917 0.42377z"/>
  <path d="m48.355 90.819c0.03437-0.59941 0.11811-1.1945 0.23134-1.784 0.10161-0.47927 0.26069-0.94056 0.49657-1.3696 0.18842-0.33605 0.43026-0.63606 0.6519-0.94958 0.26584-0.37596 0.52784-0.75624 0.76827-1.1491 0.40578-0.62416 0.74909-1.283 1.1432-1.9146 0.54477-0.88322 1.2665-1.6513 1.7775-2.5566 0.11151-0.19755 0.19819-0.40812 0.29729-0.61217 0.09338-0.18745 0.18676-0.3749 0.28014-0.56235 0 0-0.16326-0.09767-0.16326-0.09767-0.17156 0.14076-0.34312 0.28152-0.51468 0.42228-0.18584 0.15232-0.38101 0.29392-0.55751 0.45696-0.77333 0.71437-1.374 1.5953-1.9958 2.4367-0.42502 0.61215-0.85477 1.2204-1.2647 1.8427-0.26999 0.37224-0.52402 0.75581-0.79997 1.1238-0.23838 0.30875-0.47193 0.62399-0.65934 0.96694-0.22311 0.45337-0.38877 0.92405-0.46415 1.4263-0.11332 0.59702-0.19845 1.2007-0.22182 1.8083l0.99507 0.51166z"/>
  <path d="m72.196 20.768c-0.86299 1.3309-1.3388 2.8674-1.806 4.3689-0.54518 1.7522-0.71523 2.378-1.2292 4.1607-0.58376 1.9813-0.899 4.0255-1.368 6.0332-0.11891 0.50906-0.2641 1.0116-0.39616 1.5174l0.06645 0.03603c0.13205-0.5058 0.249-1.0158 0.39614-1.5174 0.56771-1.9354 1.3047-3.8178 1.8869-5.7487 0.92562-2.8153 1.8427-5.7256 3.6414-8.1272l-1.1915-0.72298z"/>
  <path d="m61.272 71.618c0.59625-0.66876 1.2684-1.2607 1.9493-1.8411 0.92954-0.79317 1.9282-1.4944 2.9429-2.1726 0.89008-0.54866 1.7426-1.1532 2.5837-1.7735 0.842-0.63969 1.7247-1.2224 2.5976-1.8183 0.69297-0.49072 1.4063-0.95124 2.1231-1.4062 0.8392-0.57203 1.6881-1.1298 2.5443-1.6761 0.90144-0.58086 1.8234-1.1256 2.7595-1.6483 0.81669-0.43159 1.6378-0.85431 2.4507-1.2933 0.81009-0.45974 1.5982-0.95686 2.4164-1.4022 0.90795-0.47864 1.8588-0.86364 2.8219-1.2147 0.93977-0.31448 1.8819-0.622 2.8305-0.90888 0.93787-0.28356 1.8697-0.58762 2.8177-0.83569 1.0355-0.2465 2.0802-0.4458 3.131-0.61434 1.3086-0.19982 2.6304-0.27337 3.9519-0.31611 1.1219-0.0045 2.2442 0.0066 3.366 0.03051l-0.0736-0.0549c-0.642-0.13376-1.5706-0.3436-2.2255-0.41522-0.40674-0.04448-1.3117-0.03633-1.7271-0.03739-1.3554 0.02856-2.7148 0.04607-4.0577 0.2542-1.0537 0.15414-2.0999 0.35817-3.1311 0.62542-0.9613 0.2399-1.9177 0.4976-2.8568 0.81544-0.93955 0.31064-1.8891 0.5908-2.8226 0.91941-0.96379 0.35359-1.9136 0.7469-2.8196 1.2323-0.83354 0.43726-1.6468 0.90719-2.4653 1.3718-0.79663 0.44883-1.6002 0.88521-2.4013 1.3261-0.93707 0.52243-1.8558 1.078-2.7608 1.6541-0.86515 0.55105-1.7275 1.1065-2.6053 1.6372-0.71088 0.46135-1.4179 0.92846-2.1079 1.4209-0.85097 0.61355-1.6857 1.2493-2.5429 1.8543-0.8577 0.59855-1.7301 1.1744-2.5933 1.7648-0.99791 0.69548-1.9639 1.4368-2.9054 2.2067-0.71061 0.57863-1.4394 1.1413-2.1181 1.7558l0.92769 0.55989z"/>
 </g>
</svg>
